<?xml version="1.0" encoding="UTF-8" standalone="no"?>
<svg
   xmlns:dc="http://purl.org/dc/elements/1.1/"
   xmlns:cc="http://creativecommons.org/ns#"
   xmlns:rdf="http://www.w3.org/1999/02/22-rdf-syntax-ns#"
   xmlns:svg="http://www.w3.org/2000/svg"
   xmlns="http://www.w3.org/2000/svg"
   xmlns:sodipodi="http://sodipodi.sourceforge.net/DTD/sodipodi-0.dtd"
   xmlns:inkscape="http://www.inkscape.org/namespaces/inkscape"
   viewBox="0 0 469.336 469.336"
   version="1.1"
   id="svg9"
   sodipodi:docname="YouTube_Music_gradient.svg"
   inkscape:version="1.0.2-2 (e86c870879, 2021-01-15)">
  <metadata
     id="metadata15">
    <rdf:RDF>
      <cc:Work
         rdf:about="">
        <dc:format>image/svg+xml</dc:format>
        <dc:type
           rdf:resource="http://purl.org/dc/dcmitype/StillImage" />
        <dc:title></dc:title>
      </cc:Work>
    </rdf:RDF>
  </metadata>
  <defs
     id="defs13" />
  <sodipodi:namedview
     pagecolor="#ffffff"
     bordercolor="#666666"
     borderopacity="1"
     objecttolerance="10"
     gridtolerance="10"
     guidetolerance="10"
     inkscape:pageopacity="0"
     inkscape:pageshadow="2"
     inkscape:window-width="1920"
     inkscape:window-height="1009"
     id="namedview11"
     showgrid="false"
     inkscape:zoom="1.625"
     inkscape:cx="256"
     inkscape:cy="231.29868"
     inkscape:window-x="-8"
     inkscape:window-y="-8"
     inkscape:window-maximized="1"
     inkscape:current-layer="svg9" />
  <g
     id="surface1"
     transform="translate(-21.332031,-21.332031)">
    <path
       style="fill:#ff0033;fill-opacity:1;fill-rule:nonzero;stroke:none"
       d="M 490.66797,256 C 490.66797,126.39844 385.60156,21.332031 256,21.332031 126.39844,21.332031 21.332031,126.39844 21.332031,256 21.332031,385.60156 126.39844,490.66797 256,490.66797 385.60156,490.66797 490.66797,385.60156 490.66797,256 Z m 0,0"
       id="path2" />
    <path
       style="fill:#ffffff;fill-opacity:1;fill-rule:nonzero;stroke:none"
       d="M 256,133.33203 C 323.625,133.33203 378.66797,188.375 378.66797,256 378.66797,323.625 323.625,378.66797 256,378.66797 188.375,378.66797 133.33203,323.625 133.33203,256 133.33203,188.375 188.375,133.33203 256,133.33203 M 256,112 c -79.57422,0 -144,64.42578 -144,144 0,79.57422 64.42578,144 144,144 79.57422,0 144,-64.42578 144,-144 0,-79.57422 -64.42578,-144 -144,-144 z m 0,0"
       id="path4" />
    <path
       style="fill:#ffffff;fill-opacity:1;fill-rule:nonzero;stroke:none"
       d="M 213.33203,320 320,256 213.33203,192 Z m 0,0"
       id="path6" />
  </g>
</svg>
